<?xml version="1.0" standalone="yes"?>
<svg width="1024" height="182">
<path style="fill:#565656; stroke:none;" d="M0 0L0 182L468 182L468 0L0 0z"/>
<path style="fill:#488736; stroke:none;" d="M468 0L468 182L470 182L470 0L468 0z"/>
<path style="fill:#48ae1e; stroke:none;" d="M470 0L470 182L472 182L472 0L470 0z"/>
<path style="fill:#42ca0e; stroke:none;" d="M472 0L472 182L576 182L576 134C582.4 133.982 593.218 134.819 597 129L593 129L598 124L598 123L589 122L589 121C594.56 120.934 597.337 119.881 598 114L602 119C605.576 117.563 605.877 115.714 606 112L609 115L613 112L616 118L612 72L608 72L609 66C604.925 68.8788 606 74.4552 606 79L605 79L602 75L602 72L602 71C606.539 67.33 609.707 50.6142 601 60L598 58L592 60L592 63C601.054 64.4138 599.814 74.3315 597 81L595 70C582.785 71.8915 583.477 100.281 586.318 109.852C587.599 114.169 594.403 111.754 595.079 116.09C596.179 123.154 578.08 119.305 575 118C572.874 122.361 570.627 123.096 566 122L569 112L563 111L564 79L565 79L565 97L566 97L566 77L567 77L567 80L572 80C572 72.1969 574.258 62.8425 566 59L568 52L576 52L572 37L570 37L565 49L564 49L561 40L560.055 30L560 0L472 0z"/>
<path style="fill:#3fc70d; stroke:none;" d="M560 0L560.005 29L561 40L564 49L565 49L570 37L572 37L576 52L568 52L566 59C573.627 64.1281 572 71.6969 572 80L567 77L566 77L566 97L565 97L565 79L564 79L563 111L569 112L566 122C575.911 125.881 573.099 113.679 582 113L582 71L577 72C577.71 67.4508 579.803 65.6666 584 64L585 71L586 71L592 60L598 58L601 60C610.294 52.7282 605.204 67.0862 602 71L602 72L602 75L605 79L606 79C606 75.6436 606.846 60.3377 614.397 65.8634C617.242 67.946 616 74.958 616 78C616 87.1023 613.033 102.562 617.009 110.852C620.39 117.901 627.429 110.616 628.581 106C631.14 95.7471 629 82.5604 629 72L625 72C625.761 67.1126 628.21 64.9699 633 64L633 112L638 112C637.222 116.894 634.376 118.257 630 120L630 116C622.847 118.259 615.871 122.009 613 112L609 115L606 112L602 119L598 114C596.914 119.32 594.256 120.829 589 121L589 122L598 123L598 124L593 129L597 129C591.984 134.255 582.963 133.942 576 134L576 182L708 182C708.076 175.579 714.732 166.874 720 175L721 175L721 144L720 144L720 147C711.943 137.933 699.864 139.033 688 139L688 136L640 136L640 144L634 144L634 129L624 122L624 120L646 124C646.007 115.102 648.102 113.007 657 113L657 46L646 46C647.204 38.4523 656.572 38.1334 663 38L666.945 54L667 111L668 111L671 104L672 104C676.608 109.274 696.084 106 703 106L703 115L708 114L707 96L708 96L709 111L710 111L710 100L711 100L712 114L717 111L717 58C717 54.0124 713.618 43.1577 715.237 40.314C717.078 37.0811 724.215 37.2057 725.173 41.1481C725.907 44.1693 723.282 47.8885 723.055 51C722.5 58.5899 723 66.3892 723 74L735 74L735 47C726.813 41.9873 737.055 36.8419 738 31L734 31L733 8L729 11L728 8L674 8L677 24C671.743 33.0047 651.251 29 642 29C638.638 29 633.189 29.9611 630.523 27.3966C627.519 24.5068 629.662 12.525 629 8L625 11L624 8L610 8L610 0L560 0z"/>
<path style="fill:#40c80e; stroke:none;" d="M610 0L610 8C615.405 8 620.837 7.02565 625 11L629 8C629.365 12.3272 627.127 24.4758 629.782 27.3966C632.17 30.0239 637.838 29 641 29C649.456 29 673.483 33.1943 677 24L674 8L713 8C718.635 8 724.651 6.84813 729 11L733 8L734 31L738 31L734 38C736.914 38.0103 742.231 37.3717 743.173 41.1335C744.183 45.1702 741 54.1461 741 59L741 112L745 112L748 122C744.143 121.706 725.175 119.134 736 113L736 82L722 82L722 113C728.734 116.816 721.446 121.724 716.228 119.397C710.861 117.004 711.103 104.968 711 100L710 100L710 111L709 111L708 96L707 96C705.31 101.717 705.213 108.644 708 114L703 115L703 106C694.761 106 678.672 109.055 672 104L671 104L668 111L667 111L666.945 53L663 38L662 38L662 113C664.426 113.009 675.954 114.579 669.663 118.973C665.394 121.955 650.9 120.955 647 118L646 118L646 124L624 120L624 122L634 129L634 144L640 144L640 136L688 136L688 139L714 140.5L718.833 146.333L720 144L721 144L721 175L720 175L720 172C711.527 172.001 708.032 172.851 708 182L1024 182L1024 0L610 0z"/>
<path style="fill:#7ad556; stroke:none;" d="M502 38L502 39L511 39L502 38z"/>
<path style="fill:#7ad369; stroke:none;" d="M520 38L520 39C525.205 39.0006 530.239 38.1997 532 44C534.821 36.5737 524.557 38 520 38z"/>
<path style="fill:#8fd67a; stroke:none;" d="M656 38L656 39L661 39L656 38z"/>
<path style="fill:#65be40; stroke:none;" d="M661 38L661 113L662 113L662 61L661 38z"/>
<path style="fill:#7ccc59; stroke:none;" d="M715 38L715 39L725 39L715 38z"/>
<path style="fill:#79d161; stroke:none;" d="M733 38L733 39L743 39L733 38z"/>
<path style="fill:#7dc85f; stroke:none;" d="M805 38L805 39L809 39L809 113L810 113L810 38L805 38z"/>
<path style="fill:#a8ee8e; stroke:none;" d="M840 38L840 39L844 39L844 113L845 113L845 38L840 38z"/>
<path style="fill:#95e778; stroke:none;" d="M966 38L966 39L970 39L966 38z"/>
<path style="fill:#cbffb7; stroke:none;" d="M501 39L501 45L506 45L506 44L502 44L502 40L511 40L501 39z"/>
<path style="fill:#cdffaf; stroke:none;" d="M520 39L520 40L531 40L520 39z"/>
<path style="fill:#b9f3a6; stroke:none;" d="M652 39L652 40L656 40L652 39z"/>
<path style="fill:#f2fff2; stroke:none;" d="M647 46L659 45L659 114L647 114L647 119L671 119L671 114L661.028 111.682L660 91L660 39C654.363 39.4455 648.065 39.4785 647 46z"/>
<path style="fill:#c7ffad; stroke:none;" d="M660 39L660 113L661 113L661 62L660 39z"/>
<path style="fill:#cdffb9; stroke:none;" d="M715 39L715 40L725 40L725 44L726 44L726 39L715 39z"/>
<path style="fill:#50bc28; stroke:none;" d="M731 39C731.118 42.6957 731.118 45.8643 735 47L735 74L723 74L725 45C719.112 46.2617 722 69.306 722 75L736 75L736 45L733 39L731 39z"/>
<path style="fill:#eaffe3; stroke:none;" d="M733 39L733 45L737 45L737 76L721 76L721 45L719 45L719 113L721 113L721 81L737 81L737 113L733 113L733 119C737.841 118.999 749.491 114.751 739 113L739.148 50.0185L744 39L733 39z"/>
<path style="fill:#affd90; stroke:none;" d="M765 39L765 40L768 41L765 39z"/>
<path style="fill:#d8ffc5; stroke:none;" d="M802 39L802 40L808 40L808 113L809 113L809 39L802 39z"/>
<path style="fill:#f0ffe7; stroke:none;" d="M837 39L837 45L842 45L842 70L841 70C837.81 63.1451 829.294 61.9319 826.34 70.0154C821.355 83.6609 819.515 132.286 843 114L843 119L850 118L850 113L844 113L844 39L837 39z"/>
<path style="fill:#5ac134; stroke:none;" d="M845 39L845 113L850 113L850 112C843.877 108.624 846 99.1156 846 93L846 57C846 51.3809 847.189 44.2165 845 39z"/>
<path style="fill:#a3e986; stroke:none;" d="M963 39L963 40L966 40L963 39z"/>
<path style="fill:#e7ffdf; stroke:none;" d="M963 40L963 44L968 44L968 114L970 114L970 96C970 92.0332 969.73 87.9522 970.104 84C970.617 78.5795 977.094 64.1449 983.258 73.0633C985.263 75.965 984.994 79.6473 985 83C985.013 90.6233 988.761 111.341 980 114L980 119L991 119L991 118L981 118L981 115C983.463 114.717 985.846 114.526 986.682 111.772C989.509 102.456 989.691 75.6217 984.686 67.1481C979.979 59.1798 972.763 67.968 971 73L970 73L970 39L963 40z"/>
<path style="fill:#7bd358; stroke:none;" d="M970 39L970 73L971 73C972.418 64.6185 973.291 46.8427 970 39z"/>
<path style="fill:#ebffe6; stroke:none;" d="M502 40L502 44C509.41 46.2495 507 56.7206 507 63C507 77.7655 509.173 94.4109 506.852 108.981C506.216 112.975 502.665 114.943 502 119L514 119L514 114L509 114L509 48L510 48L521.768 101L528 120L528 45L532 45L532 40L520 40L520 45L526 45L526 103L525 103L512 40L502 40z"/>
<path style="fill:#74c453; stroke:none;" d="M646 46L647 46L650 41C646.546 40.2229 646.227 43.0602 646 46z"/>
<path style="fill:#c5ffb5; stroke:none;" d="M714 40L714 45L718 45L718 44L715 44L714 40z"/>
<path style="fill:#fffeff; stroke:none;" d="M715 40L715 44L725 45L725 40L715 40z"/>
<path style="fill:#9adb7f; stroke:none;" d="M732 40L732 43L733 43L732 40z"/>
<path style="fill:#d3f7c9; stroke:none;" d="M764 40L764 47L765 47L767 40L764 40z"/>
<path style="fill:#f3ffed; stroke:none;" d="M801 40L801 45L807 45L807 70L806 70C801.077 61.0303 791.989 63.7824 789.68 73C786.682 84.965 786.913 99.1943 790.286 111C793.039 120.632 801.131 122.159 806 113L807 113L807 119L814 118L814 113L808 113L808 40L801 40z"/>
<path style="fill:#99e07a; stroke:none;" d="M836 40L836 45L837 45L836 40z"/>
<path style="fill:#d4f1b9; stroke:none;" d="M962 40L962 45L968 45L968 44L963 44L962 40z"/>
<path style="fill:#f2ffea; stroke:none;" d="M766 41L765 50L768 50L768 41L766 41z"/>
<path style="fill:#a9fb8c; stroke:none;" d="M768 41L768 48L769 48L768 41z"/>
<path style="fill:#7e7e7e; stroke:none;" d="M73 43L73 44L104 44L73 43z"/>
<path style="fill:#9e9e9e; stroke:none;" d="M178 48L178 112C171.245 112 153.41 108.553 152 117L193 117C196.07 117 204.901 118.493 206.824 115.455C208.626 112.609 203.535 112.087 201.995 112.019C195.688 111.741 189.314 112 183 112L183 43C175.166 43 167.757 44.5671 160 44.9614C158.273 45.0492 152.275 44.5791 152.921 47.8302C153.804 52.269 174.253 48.031 178 48z"/>
<path style="fill:#808080; stroke:none;" d="M183 43L183 112L184 112L184 65L183 43z"/>
<path style="fill:#9e9e9e; stroke:none;" d="M72 44L72 49L85 49L85 112C79.6744 112 73.0919 110.457 72 117C87.1453 117 107.638 120.61 120.961 111.871C134.985 102.671 130.893 80.1626 115 76C117.398 73.5442 119.99 71.1151 121.543 68C126.27 58.5229 121.255 49.0535 111.996 45.4684C100.642 41.0722 84.066 44 72 44z"/>
<path style="fill:#93d478; stroke:none;" d="M506 45L506 113L507 113L507 66L506 45z"/>
<path style="fill:#59c029; stroke:none;" d="M520 45L520 46L524 46L524 89L523 89L523 86L522 86L524 98L525 98L525 45L520 45z"/>
<path style="fill:#a5ed87; stroke:none;" d="M525 45L525 85L525 103L526 103L526 64L525 45z"/>
<path style="fill:#74d14f; stroke:none;" d="M528 45L528 120L529 120L529 65C529 59.49 526.88 49.3191 532 46L528 45z"/>
<path style="fill:#89ce71; stroke:none;" d="M651 45L651 46L658 46L651 45z"/>
<path style="fill:#c4f2b4; stroke:none;" d="M658 45L658 114L659 114L659 67L658 45z"/>
<path style="fill:#4fc026; stroke:none;" d="M715 45L715 46C718.655 49.6546 717 57.9788 717 63C717 78.3709 720.593 99.4932 714 113L718 113L718 45L715 45z"/>
<path style="fill:#98d882; stroke:none;" d="M718 45L718 113L719 113L719 66L718 45z"/>
<path style="fill:#92d379; stroke:none;" d="M721 45L721 75L722 75L721 45z"/>
<path style="fill:#86ce68; stroke:none;" d="M736 45L736 75L737 75L736 45z"/>
<path style="fill:#50c02d; stroke:none;" d="M740 45L740 113C746.255 116.545 740.841 119.841 736 120L736 122L748 122L745 119L745 112L741 112L741 65L743 46L740 45z"/>
<path style="fill:#acde95; stroke:none;" d="M806 45L806 70L807 70L806 45z"/>
<path style="fill:#76d255; stroke:none;" d="M837 45L837 46L841 46L841 70L842 70L842 45L837 45z"/>
<path style="fill:#96e178; stroke:none;" d="M967 45L967 95C967 100.364 968.992 109.764 964 113L964 114L968 114L968 67L967 45z"/>
<path style="fill:#63c83e; stroke:none;" d="M657 46L657 113L658 113L658 67L657 46z"/>
<path style="fill:#a2e28e; stroke:none;" d="M739 46L739 113L740 113L740 67L739 46z"/>
<path style="fill:#88ce6c; stroke:none;" d="M513 47L513 50L514 50L513 47z"/>
<path style="fill:#98e07c; stroke:none;" d="M764.333 47.6667L764.667 48.3333L764.333 47.6667z"/>
<path style="fill:#717171; stroke:none;" d="M160 49L160 50L177 50L177 112L178 112L178 48L160 49z"/>
<path style="fill:#95d67a; stroke:none;" d="M509 48L509 113L510 113L510 67L509 48z"/>
<path style="fill:#6a6a6a; stroke:none;" d="M91 49L91 75L109 74L109 73L92 74L91 49z"/>
<path style="fill:#565656; stroke:none;" d="M92 49L92 74C98.5202 74 105.997 74.8218 111.995 71.6968C119.448 67.8142 120.399 56.4345 112.981 51.9344C106.807 48.189 98.8849 49 92 49z"/>
<path style="fill:#bdfaac; stroke:none;" d="M514 52L514 56L515 56L514 52z"/>
<path style="fill:#aef096; stroke:none;" d="M511 53L511 56L512 56L511 53z"/>
<path style="fill:#92e476; stroke:none;" d="M515 56L516 64L517 64L515 56z"/>
<path style="fill:#747474; stroke:none;" d="M123 57L123 66L124 66L123 57z"/>
<path style="fill:#9ed97f; stroke:none;" d="M512.333 58.6667L512.667 59.3333L512.333 58.6667z"/>
<path style="fill:#9d9d9d; stroke:none;" d="M323 96L323 97C312.644 99.0955 312.726 108.137 320 114C311.985 118.261 309.541 131.32 318.094 136.772C326.942 142.412 346.366 139.768 353.811 132.826C359.459 127.56 359.842 118.051 352.956 113.679C346.368 109.497 336.541 110.138 329 109.995C326.089 109.94 321.629 109.721 321.06 105.981C320.519 102.423 325.203 100.117 328 99.419C336.777 97.2287 346.343 100.836 351.86 90.9846C355.092 85.2141 349.82 76.8414 353.502 72.4182C355.375 70.1694 372.327 66.9634 367.377 63.027C362.011 58.7595 353.901 68.2345 349 69.2269C340.832 70.8807 333.198 63.7573 324 67.1335C310.475 72.0978 308.434 91.1549 323 96z"/>
<path style="fill:#a7ee86; stroke:none;" d="M513.333 62.6667L513.667 63.3333L513.333 62.6667z"/>
<path style="fill:#92f074; stroke:none;" d="M592 63L592 64L597 64L592 63z"/>
<path style="fill:#95ee7a; stroke:none;" d="M795 63L795 64L800 64L795 63z"/>
<path style="fill:#96e97d; stroke:none;" d="M832 63L832 64L836 64L832 63z"/>
<path style="fill:#94ee7c; stroke:none;" d="M868 63L868 64L872 64L868 63z"/>
<path style="fill:#97f07c; stroke:none;" d="M938 63L938 64L943 64L938 63z"/>
<path style="fill:#97f279; stroke:none;" d="M976 65L981 64L976 65z"/>
<path style="fill:#85dc6b; stroke:none;" d="M542 64L542 65C548.286 73.2978 544 96.6259 544 107L545 107L545 64L542 64z"/>
<path style="fill:#98d97d; stroke:none;" d="M558 64L558 65L561 65L561 113L562 113L562 64L558 64z"/>
<path style="fill:#8be476; stroke:none;" d="M582.667 64.3333L583.333 64.6667L582.667 64.3333z"/>
<path style="fill:#f1ffe5; stroke:none;" d="M586 74L585 74L584 65C580.37 66.1134 578.658 67.17 578 71L582 71L582 114L576 114L576 119L595 119L595 114C592.107 113.998 587.857 114.651 585.603 112.397C582.728 109.521 584 102.694 584 99C584 87.4622 582.566 73.5702 596 69L596 80L598 80L598 64C591.048 64.0821 586.808 66.7461 586 74z"/>
<path style="fill:#c8f3ac; stroke:none;" d="M611 65L611 66L615 64L611 65z"/>
<path style="fill:#83d96c; stroke:none;" d="M629 64L629 65L632 65L632 113L638 113L638 112L633 112L633 64L629 64z"/>
<path style="fill:#a0df8e; stroke:none;" d="M763.667 64.3333L764.333 64.6667L763.667 64.3333z"/>
<path style="fill:#eeffdf; stroke:none;" d="M755 73L766 70L766 114L768 114L768 64C761.974 64.8155 755.551 66.0661 755 73z"/>
<path style="fill:#71cd4e; stroke:none;" d="M768 64L768 113L769 113C769 99.2122 773.309 76.6518 768 64z"/>
<path style="fill:#eeffe6; stroke:none;" d="M863 82C863.004 76.2953 867.531 63.2205 873.991 73.0594C876.649 77.1078 876 82.3956 876 87C864.354 87.9526 859.736 93.5906 860.015 105C860.122 109.408 860.33 118.695 866.094 119.573C870.173 120.195 873.928 116.09 877 114C878.756 122.045 883.698 116.504 884 111L883 111L878 114C878 101.487 879.075 88.411 877.424 76C876.838 71.5919 877.333 65.7178 871.956 64.3187C862.581 61.8792 855.334 76.584 863 82z"/>
<path style="fill:#f1ffed; stroke:none;" d="M932 82L934 82C934.004 76.2953 938.531 63.2205 944.991 73.0594C947.649 77.1078 947 82.3957 947 87C934.887 87.7781 930.535 94.577 931.039 106C931.221 110.116 931.962 118.662 937.13 119.623C941.626 120.46 944.945 115.451 948 113C948.982 121.531 954.641 117.535 955 111L950 114C946.573 99.6065 952.664 83.0465 947.525 69.044C945.433 63.3431 937.424 62.3569 933.742 67.2284C930.862 71.0397 932 77.5085 932 82z"/>
<path style="fill:#eaffe1; stroke:none;" d="M538 71L542 71C542 82.5801 536.336 119.457 553 120L553 119L546 115L548 115C541.868 99.1906 544 81.792 544 65C539.751 65.489 538.343 66.7033 538 71z"/>
<path style="fill:#e5ffd2; stroke:none;" d="M554 72L559 71L560 119C564.165 118.331 566.286 117.317 567 113L561 113L561 65C556.534 65.6974 554.697 67.5335 554 72z"/>
<path style="fill:#afe79c; stroke:none;" d="M578 66L578 67L582 66L578 66z"/>
<path style="fill:#bcffb1; stroke:none;" d="M584 65L585 74L586 74L584 65z"/>
<path style="fill:#96de78; stroke:none;" d="M598 65L598 78L599 78L598 65z"/>
<path style="fill:#89cb6a; stroke:none;" d="M615 65L615 107L616 107C616 95.0428 619.611 75.9876 615 65z"/>
<path style="fill:#ccffac; stroke:none;" d="M625 72L630 72L630 71L626 71L632 67C628.138 62.6707 625.294 68.1522 625 72z"/>
<path style="fill:#85d86c; stroke:none;" d="M759.667 65.3333L760.333 65.6667L759.667 65.3333z"/>
<path style="fill:#68c749; stroke:none;" d="M893 65L893 66L902 66L893 65z"/>
<path style="fill:#66c744; stroke:none;" d="M910 65L910 66L919 66L910 65z"/>
<path style="fill:#9e9e9e; stroke:none;" d="M247 66.6134C227.205 71.921 223.295 99.1404 237.326 112.33C244.588 119.158 255.803 119.318 265 116.699C299.161 106.973 280.082 57.7431 247 66.6134z"/>
<path style="fill:#93de77; stroke:none;" d="M554 66L554 68L556 66L554 66z"/>
<path style="fill:#e5ffd2; stroke:none;" d="M608 72L613 72L613 109L614 109L615 66C610.276 66.1551 608.381 67.1104 608 72z"/>
<path style="fill:#eeffec; stroke:none;" d="M626 71L630 71C630 81.1857 632.155 94.2046 629.2 104C625.873 115.03 618.603 115.559 615 105L614 105C614.031 116.075 622.5 126.645 629 112L630 112L631 119L637 118L637 113L632 113C632 100.01 635.419 81.5609 631.682 69.1528C630.23 64.3307 626.801 68.3634 626 71z"/>
<path style="fill:#bcfca6; stroke:none;" d="M755 67L755 68L759 67L755 67z"/>
<path style="fill:#c1f7bd; stroke:none;" d="M893 66L893 67L902 67L899 74L900 74L903 72L903 66L893 66z"/>
<path style="fill:#c2f4ab; stroke:none;" d="M910 66L910 67L919 67L910 66z"/>
<path style="fill:#75c75b; stroke:none;" d="M514 67L514 72L515 72L514 67z"/>
<path style="fill:#c7ffb0; stroke:none;" d="M537 67L537 72L542 72L542 71L538 71L537 67z"/>
<path style="fill:#aaf797; stroke:none;" d="M577 67C577.064 69.9934 576.946 71.3456 580 72L580 71L577 67z"/>
<path style="fill:#fffef8; stroke:none;" d="M609 67L609 71L614 71L614 67L609 67z"/>
<path style="fill:#ade697; stroke:none;" d="M892 67L892 71L893 71L892 67z"/>
<path style="fill:#fffbff; stroke:none;" d="M893 67L893 72L902 71L902 67L893 67z"/>
<path style="fill:#84d667; stroke:none;" d="M903 67L903 71L904 71L903 67z"/>
<path style="fill:#a7f387; stroke:none;" d="M909 67L909 71L910 71L909 67z"/>
<path style="fill:#f0ffe6; stroke:none;" d="M910 67L907 109L906 109C904.418 100.508 904.006 76.8887 897 72L904.87 121L897 144C904.715 142.695 905.67 132.505 906.905 126C909.416 112.772 910.304 99.0893 913.116 86C914.232 80.8041 914.046 74.9984 919 72L919 67L910 67z"/>
<path style="fill:#99dd78; stroke:none;" d="M919 67L919 71L920 71L919 67z"/>
<path style="fill:#95d57f; stroke:none;" d="M985.333 67.6667L985.667 68.3333L985.333 67.6667z"/>
<path style="fill:#95e083; stroke:none;" d="M754 68L754 72L755 72L754 68z"/>
<path style="fill:#94dc6c; stroke:none;" d="M593 69L593 70L595 78L596 78L596 69L593 69z"/>
<path style="fill:#57bc3c; stroke:none;" d="M794 73L803 72C799.671 68.6163 796.352 68.7395 794 73z"/>
<path style="fill:#7dc562; stroke:none;" d="M832 69L832 70L836 70L832 69z"/>
<path style="fill:#7cc665; stroke:none;" d="M867 69L867 70L872 70L867 69z"/>
<path style="fill:#7ac560; stroke:none;" d="M938 69L938 70L943 70L938 69z"/>
<path style="fill:#84c863; stroke:none;" d="M977 69L977 70L981 70L977 69z"/>
<path style="fill:#a4e191; stroke:none;" d="M759 71L759 72L764 71L759 71z"/>
<path style="fill:#adf297; stroke:none;" d="M765 70L765 113L754 113L754 114L766 114C766 101.52 769.81 81.4632 765 70z"/>
<path style="fill:#3dc70f; stroke:none;" d="M831.133 71.0324C822.144 75.983 825.647 97.8832 827.315 106C828.194 110.28 831.605 115.972 836.775 112.968C843.922 108.814 842.495 83.1001 840.682 76.0046C839.64 71.9261 835.217 68.783 831.133 71.0324z"/>
<path style="fill:#4eb52e; stroke:none;" d="M866 70L866 71C874.311 71.6336 874.98 78.9951 875 86L866 87L866 88L876 87C876 78.2958 876.766 70.1275 866 70z"/>
<path style="fill:#a3ef82; stroke:none;" d="M877 70L878 114L879 114C879 102.747 883.394 79.3589 877 70z"/>
<path style="fill:#a3ea8c; stroke:none;" d="M948 70L948 74L949 74L948 70z"/>
<path style="fill:#8fd076; stroke:none;" d="M986 70L987 114L991 114L991 113L988 113C988 101.953 992.282 79.1951 986 70z"/>
<path style="fill:#565656; stroke:none;" d="M251 71.5193C225.445 76.9717 234.288 118.103 261 112.62C286.286 107.431 277.279 65.9123 251 71.5193M328 71.5332C319.531 73.592 315.06 85.1983 322.228 91.5664C326.142 95.0429 334.2 94.6394 338.999 93.4668C357.35 88.9832 343.309 67.8116 328 71.5332z"/>
<path style="fill:#7fc966; stroke:none;" d="M555 74L558 73L558 104L559 104L559 71L555 74z"/>
<path style="fill:#40c60d; stroke:none;" d="M796.147 71.8727C787.406 75.7681 790.952 98.7414 792.195 105.999C792.852 109.836 795.571 115.681 800.571 113.381C803.226 112.16 804.131 107.571 804.624 105C806.121 97.1959 806.89 82.7867 804.682 75.1335C803.669 71.6214 799.295 70.4699 796.147 71.8727z"/>
<path style="fill:#71c94e; stroke:none;" d="M825 71L823 80L824 80L825 71z"/>
<path style="fill:#c6faaf; stroke:none;" d="M931 71L931 80L932 80L931 71z"/>
<path style="fill:#83d662; stroke:none;" d="M538 72L538 73L541 73L541 107L542 107L542 72L538 72z"/>
<path style="fill:#97d87e; stroke:none;" d="M612 72L612 107L613 107L612 72z"/>
<path style="fill:#78d354; stroke:none;" d="M629 72L629 104L630 104L629 72z"/>
<path style="fill:#a9e492; stroke:none;" d="M863 72L863 81L864 81L863 72z"/>
<path style="fill:#7ed169; stroke:none;" d="M896 72L896 76L897 76L896 72z"/>
<path style="fill:#9ee885; stroke:none;" d="M934 72L934 78L935 78L934 72z"/>
<path style="fill:#54b031; stroke:none;" d="M945 73L943 87L947 87L945 73z"/>
<path style="fill:#8de06e; stroke:none;" d="M792 74L790 99L791 99L792 74z"/>
<path style="fill:#71c951; stroke:none;" d="M930 74L930 80L931 80L930 74z"/>
<path style="fill:#aee496; stroke:none;" d="M949 74L949 113L950 113C950 101.828 953.311 84.2739 949 74z"/>
<path style="fill:#99d982; stroke:none;" d="M984 74L984 113L985 113C985 101.828 988.311 84.2738 984 74z"/>
<path style="fill:#afeb95; stroke:none;" d="M721 75L721 76L737 76L721 75z"/>
<path style="fill:#53c12c; stroke:none;" d="M805 75L803 111L804 111C807.181 102.273 808.649 83.6966 805 75z"/>
<path style="fill:#9ad88f; stroke:none;" d="M946 75L946 80L947 80L946 75z"/>
<path style="fill:#aae799; stroke:none;" d="M516 76L516 79L517 79L516 76z"/>
<path style="fill:#8cdb6e; stroke:none;" d="M586.333 76.6667L586.667 77.3333L586.333 76.6667z"/>
<path style="fill:#ade397; stroke:none;" d="M788 76L788 80L789 80L788 76z"/>
<path style="fill:#77d058; stroke:none;" d="M841 76L841 106L842 106L841 76z"/>
<path style="fill:#addf96; stroke:none;" d="M806 77L806 105L807 105L806 77z"/>
<path style="fill:#94e57c; stroke:none;" d="M914 77L914 82L915 82L914 77z"/>
<path style="fill:#757575; stroke:none;" d="M312 78L312 86L313 86L312 78z"/>
<path style="fill:#7fd864; stroke:none;" d="M585 78L585 82L586 82L585 78z"/>
<path style="fill:#717171; stroke:none;" d="M91 79L91 112L92 112L92 80L104 80L91 79z"/>
<path style="fill:#64c43e; stroke:none;" d="M516 79L517 86L518 86L516 79z"/>
<path style="fill:#575757; stroke:none;" d="M92 80L92 112C100.158 111.999 110.927 111.961 117.787 106.891C123.649 102.559 125.704 89.7152 119.772 84.6489C112.564 78.4935 100.725 80 92 80z"/>
<path style="fill:#c9ffb4; stroke:none;" d="M584 80L584 113L585 113L584 80z"/>
<path style="fill:#81f15e; stroke:none;" d="M596.667 80.3333L597.333 80.6667L596.667 80.3333z"/>
<path style="fill:#a8ea88; stroke:none;" d="M823 80L823 85L824 85L823 80z"/>
<path style="fill:#8ae66a; stroke:none;" d="M931.333 80.6667L931.667 81.3333L931.333 80.6667z"/>
<path style="fill:#7ad258; stroke:none;" d="M970 80L970 114L974 114L974 113L971 113L970 80z"/>
<path style="fill:#85cd6a; stroke:none;" d="M721 81L721 113L722 113L722 82L736 82L736 113L737 113L737 81L721 81z"/>
<path style="fill:#58b737; stroke:none;" d="M585 82C585 88.9157 581.726 108.392 587 113L585 82z"/>
<path style="fill:#b5eda4; stroke:none;" d="M825 82L825 99L826 99L825 82z"/>
<path style="fill:#54bd2f; stroke:none;" d="M879 82L879 114L885 111L885 110C875.251 106.921 882.167 89.5475 879 82z"/>
<path style="fill:#8cce6d; stroke:none;" d="M901 82L901 85L902 85L901 82z"/>
<path style="fill:#a4e490; stroke:none;" d="M898 83L898 86L899 86L898 83z"/>
<path style="fill:#9be083; stroke:none;" d="M913 84L913 88L914 88L913 84z"/>
<path style="fill:#91d878; stroke:none;" d="M521 85L521 88L522 88L521 85z"/>
<path style="fill:#9fe784; stroke:none;" d="M787 85L787 99L788 99L787 85z"/>
<path style="fill:#6cb750; stroke:none;" d="M822 85L822 96L823 96L822 85z"/>
<path style="fill:#70c34d; stroke:none;" d="M518 86L518 90L519 90L518 86z"/>
<path style="fill:#8fd36e; stroke:none;" d="M866.667 88.3333L867.333 88.6667L866.667 88.3333z"/>
<path style="fill:#c8ffac; stroke:none;" d="M902 88L902 95L903 95L902 88z"/>
<path style="fill:#b9fc9f; stroke:none;" d="M912 88L912 93L913 93L912 88z"/>
<path style="fill:#bcf8a0; stroke:none;" d="M936 89L936 90L941 89L936 89z"/>
<path style="fill:#7b7b7b; stroke:none;" d="M129 90L129 101L130 101L129 90z"/>
<path style="fill:#8fda75; stroke:none;" d="M870 92L870 93L876 93L870 92z"/>
<path style="fill:#76c255; stroke:none;" d="M939 93L939 94L946 94L946 107L947 107L947 92L939 93z"/>
<path style="fill:#3fc413; stroke:none;" d="M875 93C866.068 93.1004 856.833 104.064 864.858 112.393C871.043 118.812 874.782 105.935 874.961 102C875.097 99.0084 875 95.9943 875 93z"/>
<path style="fill:#5ec63d; stroke:none;" d="M875 93L874 109L875 109L875 93z"/>
<path style="fill:#808080; stroke:none;" d="M328 94L328 95L339 95L328 94z"/>
<path style="fill:#86d46f; stroke:none;" d="M866.667 94.3333L867.333 94.6667L866.667 94.3333z"/>
<path style="fill:#84d366; stroke:none;" d="M937.667 94.3333L938.333 94.6667L937.667 94.3333z"/>
<path style="fill:#3fc510; stroke:none;" d="M946 94C937.271 94.078 927.495 103.757 935.858 112.392C941.579 118.299 945.926 107.054 945.995 103C946.047 100.002 946 96.9987 946 94z"/>
<path style="fill:#aaf195; stroke:none;" d="M823 96L823 104L824 104L823 96z"/>
<path style="fill:#76cb54; stroke:none;" d="M859 98L859 110L860 110L859 98z"/>
<path style="fill:#a2f08a; stroke:none;" d="M521.333 99.6667L521.667 100.333L521.333 99.6667z"/>
<path style="fill:#8fd273; stroke:none;" d="M911 99L911 102L912 102L911 99z"/>
<path style="fill:#88d06d; stroke:none;" d="M930 99L930 110L931 110L930 99z"/>
<path style="fill:#89cb67; stroke:none;" d="M791 100L791 105L792 105L791 100z"/>
<path style="fill:#a2e48c; stroke:none;" d="M826 100L826 104L827 104L826 100z"/>
<path style="fill:#a3ed8a; stroke:none;" d="M862 100L862 110L863 110L862 100z"/>
<path style="fill:#a7e494; stroke:none;" d="M933 100L933 109L934 109L933 100z"/>
<path style="fill:#88cd72; stroke:none;" d="M905 102L906 109L907 109L905 102z"/>
<path style="fill:#84d366; stroke:none;" d="M522 104L524 119L525 119L522 104z"/>
<path style="fill:#f9fffb; stroke:none;" d="M558 104C556.064 110.062 552.605 114.502 546 115C552.601 125.759 559.803 110.77 560 104L558 104z"/>
<path style="fill:#9bd984; stroke:none;" d="M788 104L788 107L789 107L788 104z"/>
<path style="fill:#76c35b; stroke:none;" d="M902 104L903 115L904 115L902 104z"/>
<path style="fill:#8ad76d; stroke:none;" d="M824 105L824 110L825 110L824 105z"/>
<path style="fill:#b3e79d; stroke:none;" d="M542 106L542 112L543 112L542 106z"/>
<path style="fill:#81d45e; stroke:none;" d="M789 107L789 112L790 112L789 107z"/>
<path style="fill:#a7dd8f; stroke:none;" d="M840.333 107.667L840.667 108.333L840.333 107.667z"/>
<path style="fill:#b1e6a0; stroke:none;" d="M909 109L909 112L910 112L909 109z"/>
<path style="fill:#85d461; stroke:none;" d="M860 110L860 114L861 114L860 110z"/>
<path style="fill:#9ad680; stroke:none;" d="M863.333 110.667L863.667 111.333L863.333 110.667z"/>
<path style="fill:#84de63; stroke:none;" d="M931 110L931 114L932 114L931 110z"/>
<path style="fill:#8fd575; stroke:none;" d="M934.333 110.667L934.667 111.333L934.333 110.667z"/>
<path style="fill:#c2ff9e; stroke:none;" d="M884 111L884 115L885 115L884 111z"/>
<path style="fill:#c0f8bb; stroke:none;" d="M955 111L955 115L956 115L955 111z"/>
<path style="fill:#abfa8f; stroke:none;" d="M543.333 112.667L543.667 113.333L543.333 112.667z"/>
<path style="fill:#79b762; stroke:none;" d="M558 112L556 117L558 112z"/>
<path style="fill:#74c658; stroke:none;" d="M629 112L627 117L629 112z"/>
<path style="fill:#85d36d; stroke:none;" d="M790.333 112.667L790.667 113.333L790.333 112.667z"/>
<path style="fill:#93e070; stroke:none;" d="M812.667 112.333L813.333 112.667L812.667 112.333z"/>
<path style="fill:#bbf69c; stroke:none;" d="M502 115L506 114L502 115z"/>
<path style="fill:#c0f2a9; stroke:none;" d="M509 113L509 114L514 114L509 113z"/>
<path style="fill:#94df69; stroke:none;" d="M576 113L576 114L582 114L576 113z"/>
<path style="fill:#87de6d; stroke:none;" d="M585 113L585 114L595 114L585 113z"/>
<path style="fill:#d1ffb9; stroke:none;" d="M637 113L637 117L638 117L637 113z"/>
<path style="fill:#95df70; stroke:none;" d="M647 113L647 114L658 114L647 113z"/>
<path style="fill:#97e679; stroke:none;" d="M661 113L661 114L671 114L661 113z"/>
<path style="fill:#c9f4ad; stroke:none;" d="M714 113L714 114L719 114L714 113z"/>
<path style="fill:#fffcff; stroke:none;" d="M714 114L714 118L724 118C722.481 112.63 718.724 113.642 714 114z"/>
<path style="fill:#dbffda; stroke:none;" d="M722 113L724 118L714 118L714 119L725 119L725 113L722 113z"/>
<path style="fill:#96dc7a; stroke:none;" d="M768 113L768 114L778 114L768 113z"/>
<path style="fill:#8fbf75; stroke:none;" d="M806 113L806 118L807 118L806 113z"/>
<path style="fill:#aeff99; stroke:none;" d="M814 113L814 117L815 117L814 113z"/>
<path style="fill:#91da71; stroke:none;" d="M826.333 113.667L826.667 114.333L826.333 113.667z"/>
<path style="fill:#7dd157; stroke:none;" d="M850 113L850 117L851 117L850 113z"/>
<path style="fill:#b9e79f; stroke:none;" d="M946 113L948 115L948 113L946 113z"/>
<path style="fill:#89e26e; stroke:none;" d="M980 113L980 114L984 114L980 113z"/>
<path style="fill:#80d762; stroke:none;" d="M501 114L501 118L502 118L501 114z"/>
<path style="fill:#b7fa9b; stroke:none;" d="M514 114L514 118L515 118L514 114z"/>
<path style="fill:#99db83; stroke:none;" d="M548 114L548 115L552 115L548 114z"/>
<path style="fill:#72ca5c; stroke:none;" d="M575 114L575 118L576 118L575 114z"/>
<path style="fill:#a1e785; stroke:none;" d="M595 114L595 119L596 119L595 114z"/>
<path style="fill:#9ad082; stroke:none;" d="M619 114L619 115L622 115L619 114z"/>
<path style="fill:#a2e48c; stroke:none;" d="M646 114L646 118L647 118L646 114z"/>
<path style="fill:#b9f6a6; stroke:none;" d="M671 114L671 119L672 119L671 114z"/>
<path style="fill:#87db5f; stroke:none;" d="M713 114L713 118L714 118L713 114z"/>
<path style="fill:#abeb97; stroke:none;" d="M725 114L725 118L726 118L725 114z"/>
<path style="fill:#93dc80; stroke:none;" d="M732 114L732 118L733 118L732 114z"/>
<path style="fill:#7bd559; stroke:none;" d="M753 114L753 119L754 119L753 114z"/>
<path style="fill:#e6ffd3; stroke:none;" d="M754 114L754 119L779 119L779 114L769 114L769 115L777 115L777 118L755 118L755 115L766 115L754 114z"/>
<path style="fill:#fffffd; stroke:none;" d="M755 115L755 118L777 118L777 115L755 115z"/>
<path style="fill:#8cd973; stroke:none;" d="M791.333 114.667L791.667 115.333L791.333 114.667z"/>
<path style="fill:#94d181; stroke:none;" d="M797 114L797 115L800 115L797 114z"/>
<path style="fill:#99d784; stroke:none;" d="M832 114L832 115L836 115L832 114z"/>
<path style="fill:#90dc6f; stroke:none;" d="M842 114L842 119L843 119L842 114z"/>
<path style="fill:#a0d58d; stroke:none;" d="M865 114L865 115L869 115L865 114z"/>
<path style="fill:#59bf38; stroke:none;" d="M869 119L869 120L876 116L876 121L882 121L882 120L878 120L877 114L869 119z"/>
<path style="fill:#92ce84; stroke:none;" d="M937.667 114.333L938.333 114.667L937.667 114.333z"/>
<path style="fill:#a9f48b; stroke:none;" d="M963 114L963 119L964 119L963 114z"/>
<path style="fill:#fefcff; stroke:none;" d="M964 114L964 119L974 119L974 114L964 114z"/>
<path style="fill:#a5f795; stroke:none;" d="M974 114L974 119L975 119L974 114z"/>
<path style="fill:#c2ffaa; stroke:none;" d="M979 114L979 118L980 118L979 114z"/>
<path style="fill:#fffff8; stroke:none;" d="M981 115L981 118L991 118L991 114L981 115z"/>
<path style="fill:#b8eca4; stroke:none;" d="M991 114L991 119L992 119L991 114z"/>
<path style="fill:#575757; stroke:none;" d="M323.189 116.028C317.624 119.258 317.459 129.641 323.109 132.821C328.646 135.938 341.524 134.565 346.906 131.547C352.55 128.382 353.653 120.581 347.941 116.858C343.265 113.81 328.071 113.194 323.189 116.028z"/>
<path style="fill:#97e47e; stroke:none;" d="M544.333 115.667L544.667 116.333L544.333 115.667z"/>
<path style="fill:#b9fea5; stroke:none;" d="M559 115L559 119L560 119L559 115z"/>
<path style="fill:#83d46b; stroke:none;" d="M827.333 115.667L827.667 116.333L827.333 115.667z"/>
<path style="fill:#a9f090; stroke:none;" d="M932 115L934 118L932 115z"/>
<path style="fill:#6ece51; stroke:none;" d="M861 116L863 119L861 116z"/>
<path style="fill:#6fca53; stroke:none;" d="M904 116L903 129L904 129L904 116z"/>
<path style="fill:#787878; stroke:none;" d="M73 117L73 118L106 118L73 117z"/>
<path style="fill:#797979; stroke:none;" d="M153 117L153 118L207 118L189 117L153 117z"/>
<path style="fill:#727272; stroke:none;" d="M250 118L250 119L266 118L250 118z"/>
<path style="fill:#8bd872; stroke:none;" d="M630 117L632 120L630 117z"/>
<path style="fill:#86e275; stroke:none;" d="M948.333 117.667L948.667 118.333L948.333 117.667z"/>
<path style="fill:#77ca60; stroke:none;" d="M502 119L502 120L514 120L502 119z"/>
<path style="fill:#7dc95d; stroke:none;" d="M577 119L577 120L595 120L577 119z"/>
<path style="fill:#79c45b; stroke:none;" d="M647 119L647 120L671 120L647 119z"/>
<path style="fill:#75c56c; stroke:none;" d="M714 119L714 120L725 120L714 119z"/>
<path style="fill:#74c75b; stroke:none;" d="M733 119L733 120L743 120L733 119z"/>
<path style="fill:#7bc661; stroke:none;" d="M754 119L754 120L778 120L754 119z"/>
<path style="fill:#91e478; stroke:none;" d="M800.667 119.333L801.333 119.667L800.667 119.333z"/>
<path style="fill:#9eed82; stroke:none;" d="M878 119L878 120L882 120L878 119z"/>
<path style="fill:#a6ec8c; stroke:none;" d="M949 119L949 120L953 120L949 119z"/>
<path style="fill:#77cb5c; stroke:none;" d="M964 119L964 120L974 120L964 119z"/>
<path style="fill:#78c462; stroke:none;" d="M980 119L980 120L991 120L980 119z"/>
<path style="fill:#7ad14f; stroke:none;" d="M548 120L548 121L552 121L548 120z"/>
<path style="fill:#6fd452; stroke:none;" d="M832 120L832 121L836 121L832 120z"/>
<path style="fill:#6dd34b; stroke:none;" d="M864 120L864 121L869 121L864 120z"/>
<path style="fill:#7ac862; stroke:none;" d="M907 122L907 128L908 128L907 122z"/>
<path style="fill:#6fcb4c; stroke:none;" d="M906 128L906 133L907 133L906 128z"/>
<path style="fill:#b2e7a3; stroke:none;" d="M905 131L905 134L906 134L905 131z"/>
<path style="fill:#82d762; stroke:none;" d="M896 138L896 142L897 142L896 138z"/>
</svg>
