<?xml version="1.0" standalone="yes"?>
<svg width="1024" height="182">
<path style="fill:#565656; stroke:none;" d="M0 0L0 182L468 182L468 0L0 0z"/>
<path style="fill:#488736; stroke:none;" d="M468 0L468 182L470 182L470 0L468 0z"/>
<path style="fill:#48ae1e; stroke:none;" d="M470 0L470 182L472 182L472 0L470 0z"/>
<path style="fill:#3fc70d; stroke:none;" d="M472 0L472 182L708 182C708.076 175.579 714.732 166.874 720 175L721 175L721 145L720 145L719 147C713.218 137.192 698.56 139.029 688 139L688 136L640 136L640 144L634 144L634 129L640 129L640 126L629 127L652 120L652 116L639 118L640 120L623 119L628 112C620.876 112.326 612.039 117.574 605.019 114.512C593.996 109.704 596.764 94.994 605.286 89.6528C610.659 86.2858 621.727 87.0173 628 87C627.999 76.8207 619.43 67.1656 608.317 74.3179C605.701 76.0017 606.049 79.6143 603.698 81.534C601.796 83.0873 599.548 82.2506 598.876 79.9221C597.162 73.9841 605.605 69.7892 610 68.4429C620.072 65.3575 630.886 69.523 634 80L640 78L637 86L650 85L649 95L656 98L658 108L669 108L669 74L657 76L658 70L655 70L661 66L660 69L664 69L664 66L672 64L676 67L682 63L684 42C693.392 46.2712 710.539 43 721 43C724.546 43 730.346 44.0918 732.682 40.6821C737.39 33.8092 734.123 15.7816 733 8L729 11L728 8L674 8L677 24C671.743 33.0047 651.251 29 642 29C638.638 29 633.189 29.9611 630.523 27.3966C627.519 24.5068 629.662 12.525 629 8L625 11L624 8L610 8L610 0L472 0z"/>
<path style="fill:#40c80e; stroke:none;" d="M610 0L610 8C615.405 8 620.837 7.02565 625 11L629 8C629.365 12.3272 627.127 24.4758 629.782 27.3966C632.17 30.0239 637.838 29 641 29C649.456 29 673.483 33.1943 677 24L674 8L713 8C718.635 8 724.651 6.84813 729 11L733 8C733.688 16.1303 737.698 33.9027 732.107 40.6821C729.369 44.0008 723.807 43 720 43C708.751 43 694.797 45.2105 684 42L682 63L676 67L672 64L664 66L664 69L660 69L661 66C657.59 66.2626 656.099 66.6787 655 70L658 70L657 76C660.904 75.1635 674.684 60.0007 675 75C678.587 72.7882 681.967 69.9838 686 68.6103C711.435 59.949 709 92.1525 709 107C711.119 107.162 717.846 108.909 713.623 111.977C708.597 115.629 693.846 114.08 692 108L702 108C702 99.3343 705.011 83.5934 699.772 76.2284C694.745 69.1635 679.756 73.4742 676.179 80.0903C672.448 86.9906 675 100.281 675 108C690.082 108.492 665.076 122.052 661 108L658 108L656 98L649 95C651.066 91.2538 651.713 88.9877 650 85L637 86L640 78C631.245 80.4747 635 100.582 635 108L646 106C641.494 120.64 628.895 103.644 624 112L628 112L623 119L640 120L639 118L652 116L652 120L629 127L640 126L640 129L634 129L634 144L640 144L640 136L688 136L688 139L711.946 140.318L720 145L721 145L721 175L720 175L720 172C711.527 172.001 708.032 172.851 708 182L1024 182L1024 0L610 0z"/>
<path style="fill:#81dc63; stroke:none;" d="M522 52L523 52C525.876 46.7841 531.705 48 537 48L576 48C565.02 43.3926 545.944 47 534 47C528.805 47 523.046 45.7303 522 52z"/>
<path style="fill:#e3ffd9; stroke:none;" d="M523 52L532 52L532 51L525 50L525 49L577 49L577 67L578 67L578 48L537 48C532.012 48 524.883 46.3277 523 52z"/>
<path style="fill:#fcfffb; stroke:none;" d="M525 49L525 50C538.451 54.4526 533 79.7989 533 92C533 96.062 534.537 104.256 531.397 107.397C528.812 109.981 523.323 109 520 109L520 112L560 112L560 109C554.602 109 543.927 111.048 539.318 107.972C535.157 105.196 535.157 83.8041 539.318 81.0278C543.403 78.3018 552.246 80 557 80L558 91L561 91L561 67L558 67C557.969 75.7825 546.096 82.8893 538.603 75.3966C535.489 72.2818 536.215 60.0742 537.318 56.0586C539.016 49.8741 566.779 49.7562 571.682 53.0278C575.584 55.6318 574 63.9582 574 68L577 68L577 49L525 49z"/>
<path style="fill:#76cf51; stroke:none;" d="M578 49C578 55.1268 580.125 64.6229 574 68L574 69C581.201 67.7983 580.298 54.4762 578 49z"/>
<path style="fill:#a9f088; stroke:none;" d="M523 52L523 53L532 53L523 52z"/>
<path style="fill:#a7ef89; stroke:none;" d="M538 52L538 53C545.53 53 567.695 49.3592 572 56L573 56L573 52L538 52z"/>
<path style="fill:#54c22d; stroke:none;" d="M523 53L523 54L531 54L531 107L521 107L521 108L532 108L532 53L523 53z"/>
<path style="fill:#9ddb85; stroke:none;" d="M532 53L532 108L533 108L533 71L532 53z"/>
<path style="fill:#c9fcb9; stroke:none;" d="M537 53L537 76L538 76L537 53z"/>
<path style="fill:#55bb2b; stroke:none;" d="M538 53L538 76L557 76L557 68L556 68L556 75L539 75L539 54L572 55C567.134 49.4316 545.358 53 538 53z"/>
<path style="fill:#d1ffbe; stroke:none;" d="M573 53L573 67L574 67L573 53z"/>
<path style="fill:#848484; stroke:none;" d="M64 56L64 57L87 57L64 56M103 56L103 57L124 57L103 56z"/>
<path style="fill:#9d9d9d; stroke:none;" d="M165.434 57.0432C160.486 60.2717 165.983 67.0107 170.681 63.9676C175.585 60.7911 169.922 54.1153 165.434 57.0432z"/>
<path style="fill:#787878; stroke:none;" d="M308 56L308 57L315 58L308 56z"/>
<path style="fill:#9e9e9e; stroke:none;" d="M63 57C64.7553 62.2886 70.8212 59.957 73.1219 65.0586C79.4829 79.1634 82.8956 95.3252 87.7948 110C88.9641 113.502 90.542 125.199 95.8302 124.534C101.012 123.882 101.364 112.771 102.428 109C106.908 93.1221 114.202 77.2595 117 61C120.935 60.9534 123.657 61.046 125 57L102 57L102 61L111 61L96 115L95 115L78 61L88 61L88 57L63 57z"/>
<path style="fill:#9c9c9c; stroke:none;" d="M316 58C297.07 54.4998 314.744 74.5993 316 58z"/>
<path style="fill:#9d9d9d; stroke:none;" d="M366 79C354.341 79.0013 354.341 83.9987 366 84C366 102.372 361.47 129.473 389 123.61C392.85 122.79 396.471 120.678 400 119C397.289 110.912 383.059 122.916 376.094 118.436C368.479 113.538 370.997 101.746 371 94C371.001 90.8498 370.263 86.0663 373.318 84.0278C378.1 80.837 389.389 83 395 83C392.685 76.0237 377.194 79 371 79L371 63C364.285 65.1211 366 73.2177 366 79z"/>
<path style="fill:#808080; stroke:none;" d="M371 63L371 79L372 79L371 63z"/>
<path style="fill:#bbf0ac; stroke:none;" d="M918 64L918 65L924 65L918 64z"/>
<path style="fill:#9fe986; stroke:none;" d="M916.667 65.3333L917.333 65.6667L916.667 65.3333z"/>
<path style="fill:#f7fff6; stroke:none;" d="M884 94C879.227 98.2196 875.116 104.777 882 109C879.824 111.712 877.107 114.507 876.318 118C872.186 136.277 904.641 135.621 912.347 125.815C924.211 110.718 901.914 107.182 892 106.995C889.096 106.941 882.998 106.422 883.63 102.039C884.698 94.6429 897.313 96.6842 902 95.6057C912.855 93.1077 912.009 81.2562 909 73C914.255 72.0667 923.224 70.4824 925 65C918.098 65.0579 913.201 70.0516 907 70.3534C899.297 70.7284 892.033 65.226 884.089 69.456C873.515 75.0875 873.637 88.5632 884 94z"/>
<path style="fill:#83e55c; stroke:none;" d="M558 66L558 67L561 67L558 66z"/>
<path style="fill:#baeba9; stroke:none;" d="M561 67L561 91L562 91L561 67z"/>
<path style="fill:#99e67e; stroke:none;" d="M613 67L613 68L620 68L613 67z"/>
<path style="fill:#9deb7e; stroke:none;" d="M690 67L690 68L694 68L690 67z"/>
<path style="fill:#9beb7a; stroke:none;" d="M758 67L758 68L763 68L758 67z"/>
<path style="fill:#9be67f; stroke:none;" d="M821 67L821 68L827 68L821 67z"/>
<path style="fill:#a0e980; stroke:none;" d="M890 67L890 68L896 68L890 67z"/>
<path style="fill:#9fee81; stroke:none;" d="M962 67L962 68L968 68L962 67z"/>
<path style="fill:#ceffad; stroke:none;" d="M557 68L557 76L558 76L557 68z"/>
<path style="fill:#62c43d; stroke:none;" d="M562 68L562 90L563 90L562 68z"/>
<path style="fill:#f4fff3; stroke:none;" d="M599 83L604 83C606.311 65.2223 628.849 70.3411 629 87C620.456 87.0009 606.777 86.5597 600.434 93.3904C594.52 99.7579 599.08 111.601 607.001 113.581C615.463 115.696 622.983 110.887 630 107C632.342 115.482 644.546 114.591 646 106C642.446 106.882 636.952 110.696 634.742 105.851C629.927 95.2917 637.901 82.5896 629.892 72.3403C620.56 60.3975 599.04 69.0845 599 83z"/>
<path style="fill:#a0e684; stroke:none;" d="M670 68L670 69L673 69L670 68z"/>
<path style="fill:#f9fff6; stroke:none;" d="M676 76L674 76L673 70C668.155 70 661.814 68.5352 660 74C662.425 73.9585 666.388 73.0657 668.397 74.7731C671.201 77.157 670 83.744 670 87C670 96.278 673.346 108.854 661 109L661 112L683 112L683 109C672.882 108.88 674 102.329 674 94C674 83.167 677.626 72.0309 691 72.0309C704.453 72.0309 703 85.3573 703 95C703 98.5045 704.13 104.661 701.397 107.397C699.325 109.47 695.664 108.991 693 109L693 112L716 112L716 109C712.441 108.958 708.457 109.091 707.318 104.941C704.744 95.568 709.855 84.152 706.258 75.0154C701.687 63.4078 680.831 66.5498 676 76z"/>
<path style="fill:#a5eb8b; stroke:none;" d="M740 68L740 69L743 69L740 68z"/>
<path style="fill:#fcfffd; stroke:none;" d="M746 76C751.303 74.7579 755.27 71.6322 761 72.0949C764.998 72.4178 768.122 74.1867 770.892 77.0548C780.517 87.022 776.499 105.051 763 109.195C755.765 111.417 744.386 105.861 743.148 97.9961C741.633 88.371 744.326 78.5895 744 69C738.895 69.0141 731.877 68.3272 730 74L740 74L740 129L732 129L732 133L759 132L759 130L744 129L744 109C749.365 111.234 753.989 114.149 760 113.957C779.393 113.338 787.964 88.2781 775.701 74.0941C767.93 65.105 752.091 65.6208 746 76z"/>
<path style="fill:#f9fffa; stroke:none;" d="M837 107C840.149 114.765 851.475 115.012 853 106C850.437 106.509 846.748 109.072 844.189 108.264C839.846 106.892 841 99.4097 841 96C840.999 86.0684 843.394 70.3272 830 68.2137C823.534 67.1935 815.395 67.4826 810.059 71.6381C807.588 73.5624 803.849 79.2098 807.559 81.9136C811.078 84.4773 812.997 75.522 815.148 74.0093C822.816 68.6162 834.308 72.905 836.212 81.9954C838.009 90.5711 813.374 87.1519 808.148 94.1327C803.043 100.952 806.533 111.92 815 113.656C823.168 115.33 830.432 111.331 837 107z"/>
<path style="fill:#f9fff3; stroke:none;" d="M958 68.5324C942.602 72.2066 936.701 92.6405 945.638 104.995C953.336 115.638 970.356 116.538 980.981 109.925C982.284 109.114 987.974 103.711 983.663 102.917C980.565 102.347 976.672 106.582 974 107.811C966.053 111.466 958.496 109.958 952.055 104.242C949.47 101.947 945.266 97.1733 947.212 93.3179C948.803 90.1676 954.141 91.0013 957 91C962.95 90.9973 978.536 93.7923 983.258 89.9722C987.405 86.6165 984.642 77.2697 981.772 74.1049C976.023 67.7664 966.011 66.6208 958 68.5324z"/>
<path style="fill:#deffd0; stroke:none;" d="M666 69L666 70L673 70L673 75L674 75L674 69L666 69z"/>
<path style="fill:#a0d88f; stroke:none;" d="M674 69L676 76L674 69z"/>
<path style="fill:#e6ffdc; stroke:none;" d="M744 74L743 102L744 102C744 93.9892 741.732 82.9752 748 77L748 76L746 74L753 70L744 74z"/>
<path style="fill:#58b83b; stroke:none;" d="M877 75L878 75L882 71C878.821 70.3274 877.868 72.1148 877 75z"/>
<path style="fill:#71be60; stroke:none;" d="M744 71L744 74L747 73L747 72L744 71z"/>
<path style="fill:#8dce72; stroke:none;" d="M906.667 71.3333L907.333 71.6667L906.667 71.3333z"/>
<path style="fill:#a8e482; stroke:none;" d="M950.667 71.3333L951.333 71.6667L950.667 71.3333z"/>
<path style="fill:#baf5a5; stroke:none;" d="M607 73L607 74L626 75C621.206 70.5083 613.014 71.5682 607 73z"/>
<path style="fill:#b6f3a3; stroke:none;" d="M630 72L632 75L630 72z"/>
<path style="fill:#b9eea6; stroke:none;" d="M683 73L683 74L697 73L683 73z"/>
<path style="fill:#a2ea87; stroke:none;" d="M752 73L752 74L765 73L752 73z"/>
<path style="fill:#9eeb81; stroke:none;" d="M815 73L815 74L830 73L815 73z"/>
<path style="fill:#ccffc1; stroke:none;" d="M878 75L881 72L878 75z"/>
<path style="fill:#9cef85; stroke:none;" d="M888 72L888 73L899 73L888 72z"/>
<path style="fill:#9bea8f; stroke:none;" d="M956 73L956 74L971 73L956 73z"/>
<path style="fill:#bde8b0; stroke:none;" d="M666 73L666 74L669 74L666 73z"/>
<path style="fill:#c0eea6; stroke:none;" d="M697.667 73.3333L698.333 73.6667L697.667 73.3333z"/>
<path style="fill:#40c80e; stroke:none;" d="M754 73.4823C737.198 77.0761 741.538 113.07 763 108.481C784.694 103.842 777.875 68.3754 754 73.4823z"/>
<path style="fill:#9ee388; stroke:none;" d="M765 73L765 74L768 74L765 73z"/>
<path style="fill:#b8ef9c; stroke:none;" d="M830.667 73.3333L831.333 73.6667L830.667 73.3333z"/>
<path style="fill:#96d676; stroke:none;" d="M886.667 73.3333L887.333 73.6667L886.667 73.3333z"/>
<path style="fill:#3ec510; stroke:none;" d="M888.004 73.7276C881.323 76.1499 878.224 85.3073 884.394 90.2577C887.924 93.0901 896.886 92.8077 900.895 91.1065C914.539 85.3161 899.489 69.5634 888.004 73.7276z"/>
<path style="fill:#dcffcf; stroke:none;" d="M945 78L950 73L945 78z"/>
<path style="fill:#4fba30; stroke:none;" d="M949 81C956.569 75.8927 961.84 74.001 971 74C963.44 70.8278 952.608 73.4492 949 81z"/>
<path style="fill:#9ed985; stroke:none;" d="M971.667 73.3333L972.333 73.6667L971.667 73.3333z"/>
<path style="fill:#74cf56; stroke:none;" d="M605 74L604 82L605 82L607 74L605 74z"/>
<path style="fill:#9ee587; stroke:none;" d="M660 74L660 75L666 75L660 74z"/>
<path style="fill:#b8faa2; stroke:none;" d="M669 74L669 108L670 108L669 74z"/>
<path style="fill:#68c751; stroke:none;" d="M699 74L701 80L702 80L699 74z"/>
<path style="fill:#9be983; stroke:none;" d="M730 74L730 75L736 75L730 74z"/>
<path style="fill:#6ec14b; stroke:none;" d="M736 74L736 75L738 91L738 128L733 128L733 129L739 129L739 74L736 74z"/>
<path style="fill:#cdffb6; stroke:none;" d="M739 74L739 129L740 129L740 92L739 74z"/>
<path style="fill:#6cc44a; stroke:none;" d="M883 77L886 74L883 77z"/>
<path style="fill:#bdf4a3; stroke:none;" d="M901.667 74.3333L902.333 74.6667L901.667 74.3333z"/>
<path style="fill:#3fc70d; stroke:none;" d="M949 86L980 86C979.793 68.4964 950.187 70.2484 949 86z"/>
<path style="fill:#b4f59b; stroke:none;" d="M974.667 74.3333L975.333 74.6667L974.667 74.3333z"/>
<path style="fill:#aeee8e; stroke:none;" d="M632.333 75.6667L632.667 76.3333L632.333 75.6667z"/>
<path style="fill:#aeef93; stroke:none;" d="M812 75L812 78L813 78L812 75z"/>
<path style="fill:#74cc51; stroke:none;" d="M903 75L905 78L903 75z"/>
<path style="fill:#b3e699; stroke:none;" d="M538 76L538 77L557 77L538 76z"/>
<path style="fill:#c4fabc; stroke:none;" d="M598 76L598 81L599 81L598 76z"/>
<path style="fill:#9ce480; stroke:none;" d="M840.333 76.6667L840.667 77.3333L840.333 76.6667z"/>
<path style="fill:#9e9e9e; stroke:none;" d="M145 80L145 84L167 82L167 119L143 120L143 122C157.707 126.347 177.653 123 193 123L193 119L172 119L172 77L145 80M219 106L215 106L215 123L219 123L219 118C227.026 123.46 236.245 126.044 245.999 123.211C253.3 121.09 259.018 112.564 254.682 105.185C248.835 95.2332 233.083 100.38 225.229 93.49C216.325 85.6792 230.709 80.5192 237 81.1042C246.618 81.9985 247.848 90.6361 255 93L255 77L251 77L251 81C243.183 77.9844 234.45 75.1956 226 77.6381C216.526 80.3767 212.521 90.4896 220.189 97.7716C226.185 103.465 248.084 100.454 249.573 110.093C250.634 116.956 242.238 119.714 237 119.892C227.985 120.199 220.869 114.571 219 106M287 84L310 82L310 119L286 120L286 122C300.707 126.347 320.653 123 336 123L336 119L314 119L314 77C307.345 77.0184 289.401 76.759 287 84z"/>
<path style="fill:#858585; stroke:none;" d="M314 77L314 119L315 119C315 107.043 318.611 87.9878 314 77z"/>
<path style="fill:#97d071; stroke:none;" d="M633 77L633 80L634 80L633 77z"/>
<path style="fill:#daffce; stroke:none;" d="M707 77L707 108L708 108L707 77z"/>
<path style="fill:#5dc13b; stroke:none;" d="M708 77L708 108L715 108L715 107L709 107L708 77z"/>
<path style="fill:#c2f5b3; stroke:none;" d="M905 77L906 86L907 86L905 77z"/>
<path style="fill:#7e7e7e; stroke:none;" d="M255 78L255 92L256 92L255 78z"/>
<path style="fill:#9cdc85; stroke:none;" d="M702 78L702 108L703 108L702 78z"/>
<path style="fill:#bbf3aa; stroke:none;" d="M778 78L780 81L778 78z"/>
<path style="fill:#72bf57; stroke:none;" d="M628 79L628 87L629 87L628 79z"/>
<path style="fill:#baefa7; stroke:none;" d="M911 79L911 88L912 88L911 79z"/>
<path style="fill:#beffa2; stroke:none;" d="M538 80L538 81L557 81L538 80z"/>
<path style="fill:#7ed259; stroke:none;" d="M634 80L634 107L635 107L634 80z"/>
<path style="fill:#aef39a; stroke:none;" d="M674 80L674 108L675 108L676 80L674 80z"/>
<path style="fill:#96e578; stroke:none;" d="M744 80L745 104L746 104L744 80z"/>
<path style="fill:#bff3a9; stroke:none;" d="M841 80L841 107L842 107L841 80z"/>
<path style="fill:#90e37b; stroke:none;" d="M875 80L875 84L876 84L875 80z"/>
<path style="fill:#98d973; stroke:none;" d="M948.333 80.6667L948.667 81.3333L948.333 80.6667z"/>
<path style="fill:#bceea7; stroke:none;" d="M985 80L985 88L986 88L985 80z"/>
<path style="fill:#7d7d7d; stroke:none;" d="M228 81L228 82L241 82L228 81z"/>
<path style="fill:#cffac4; stroke:none;" d="M537 81L537 108L538 108L537 81z"/>
<path style="fill:#53ba2d; stroke:none;" d="M538 81L538 108L559 108L559 107L539 107L539 82L555 82L558 92L557 81L538 81z"/>
<path style="fill:#91d67d; stroke:none;" d="M774.333 81.6667L774.667 82.3333L774.333 81.6667z"/>
<path style="fill:#bbeda8; stroke:none;" d="M836 81L836 87L837 87L836 81z"/>
<path style="fill:#b3e8a4; stroke:none;" d="M980.333 81.6667L980.667 82.3333L980.333 81.6667z"/>
<path style="fill:#7d7d7d; stroke:none;" d="M161 82L161 83L166 83L166 118L144 118L144 119L167 119L167 82L161 82z"/>
<path style="fill:#808080; stroke:none;" d="M304 82L304 83L309 83L309 118C302.584 118 295.384 117.071 289.059 118.148C286.815 118.53 284.019 120.846 286.623 122.977C289.483 125.318 296.53 124 300 124L335 124L335 123L286 122L286 120L310 119L310 82L304 82z"/>
<path style="fill:#59b136; stroke:none;" d="M948 82L947 87L981 87L981 83L980 83L980 86L949 86L948 82z"/>
<path style="fill:#818181; stroke:none;" d="M372 83L372 84L394 84L372 83z"/>
<path style="fill:#80df69; stroke:none;" d="M600 83L600 84L603 84L600 83z"/>
<path style="fill:#82db6d; stroke:none;" d="M807 83L807 84L810 84L807 83z"/>
<path style="fill:#808080; stroke:none;" d="M371 84L371 115L372 115L371 84z"/>
<path style="fill:#b3f18c; stroke:none;" d="M557 84L557 90L558 90L557 84z"/>
<path style="fill:#99db81; stroke:none;" d="M781 84L781 96L782 96L781 84z"/>
<path style="fill:#c4ffaf; stroke:none;" d="M941 84L941 96L942 96L941 84z"/>
<path style="fill:#a1e993; stroke:none;" d="M876.333 86.6667L876.667 87.3333L876.333 86.6667z"/>
<path style="fill:#baf6ae; stroke:none;" d="M905 86L904 90L905 90L905 86z"/>
<path style="fill:#e0ffc1; stroke:none;" d="M827 87L827 88L836 88L827 87z"/>
<path style="fill:#70cf51; stroke:none;" d="M940 87L940 93L941 93L940 87z"/>
<path style="fill:#dbffc6; stroke:none;" d="M947 87L947 88L981 88L947 87z"/>
<path style="fill:#64c341; stroke:none;" d="M604 91L611 89C607.963 87.8231 605.878 88.3394 604 91z"/>
<path style="fill:#67c243; stroke:none;" d="M876 88L881 93L876 88z"/>
<path style="fill:#69d154; stroke:none;" d="M985 88L984 91L985 88z"/>
<path style="fill:#98dc79; stroke:none;" d="M616 91L616 92L629 91L616 91z"/>
<path style="fill:#acde99; stroke:none;" d="M811.667 90.3333L812.333 90.6667L811.667 90.3333z"/>
<path style="fill:#a5de8f; stroke:none;" d="M823 91L823 92L836 91L823 91z"/>
<path style="fill:#94e177; stroke:none;" d="M558 91L558 92L561 92L558 91z"/>
<path style="fill:#69c04f; stroke:none;" d="M625 91L625 92L628 92L628 103L629 103L629 91L625 91z"/>
<path style="fill:#c9ffb1; stroke:none;" d="M629 91L629 102L630 102L629 91z"/>
<path style="fill:#3fc50e; stroke:none;" d="M836 91C831.006 91.6311 825.964 91.5569 821 92.1852C814.471 93.0114 806.128 101.34 813.318 107.397C818.151 111.468 831.965 108.003 834.972 102.811C836.846 99.5756 836 94.6009 836 91z"/>
<path style="fill:#b5f39e; stroke:none;" d="M836 91L836 103L837 103L836 91z"/>
<path style="fill:#b1e79b; stroke:none;" d="M900.667 91.3333L901.333 91.6667L900.667 91.3333z"/>
<path style="fill:#98db7e; stroke:none;" d="M947 91L947 92L983 92C973.44 87.9886 957.387 91 947 91z"/>
<path style="fill:#8dd572; stroke:none;" d="M612 92L612 93L616 93L612 92z"/>
<path style="fill:#3bc80a; stroke:none;" d="M628 92C624.338 92 620.642 91.8499 617 92.2855C614.408 92.5955 611.516 92.7892 609.019 93.5687C603.972 95.1446 602.034 102.459 605.603 106.566C609.854 111.458 624.853 108.51 627.397 102.775C628.751 99.7214 628 95.2731 628 92z"/>
<path style="fill:#bef5b1; stroke:none;" d="M806 96L810 92L806 96z"/>
<path style="fill:#8edf79; stroke:none;" d="M887 92L887 93L900 93L887 92z"/>
<path style="fill:#c6ffa9; stroke:none;" d="M946 92L946 96L947 96L946 92z"/>
<path style="fill:#c8fcb4; stroke:none;" d="M775 94L775 98L776 98L775 94z"/>
<path style="fill:#b3f393; stroke:none;" d="M780 96L780 99L781 99L780 96z"/>
<path style="fill:#d5ffbc; stroke:none;" d="M889 96L889 97L899 97L889 96z"/>
<path style="fill:#9be18b; stroke:none;" d="M947 96L947 99L948 99L947 96z"/>
<path style="fill:#8ad266; stroke:none;" d="M603 97L603 104L604 104L603 97z"/>
<path style="fill:#c4fdb0; stroke:none;" d="M877 105L878 105L881 97C877.502 98.9282 877.125 101.122 877 105z"/>
<path style="fill:#8add73; stroke:none;" d="M597 98L597 104L598 104L597 98z"/>
<path style="fill:#acdd8b; stroke:none;" d="M774.333 98.6667L774.667 99.3333L774.333 98.6667z"/>
<path style="fill:#cdffb3; stroke:none;" d="M805 98L805 104L806 104L805 98z"/>
<path style="fill:#a5e493; stroke:none;" d="M810 99L810 104L811 104L810 99z"/>
<path style="fill:#92df7f; stroke:none;" d="M779.333 100.667L779.667 101.333L779.333 100.667z"/>
<path style="fill:#caf6b9; stroke:none;" d="M948 100L950 103L948 100z"/>
<path style="fill:#bff4a6; stroke:none;" d="M773 101L772 104L773 101z"/>
<path style="fill:#93dc80; stroke:none;" d="M882 101L882 104L883 104L882 101z"/>
<path style="fill:#88db71; stroke:none;" d="M778.333 102.667L778.667 103.333L778.333 102.667z"/>
<path style="fill:#9bde77; stroke:none;" d="M598.333 105.667L598.667 106.333L598.333 105.667z"/>
<path style="fill:#a6dd89; stroke:none;" d="M622.667 106.333L623.333 106.667L622.667 106.333z"/>
<path style="fill:#ade88e; stroke:none;" d="M853 106L853 109L854 109L853 106z"/>
<path style="fill:#78c960; stroke:none;" d="M885 106L885 107L902 107L885 106z"/>
<path style="fill:#b0e491; stroke:none;" d="M620.667 107.333L621.333 107.667L620.667 107.333z"/>
<path style="fill:#a3d395; stroke:none;" d="M628.667 107.333L629.333 107.667L628.667 107.333z"/>
<path style="fill:#90d676; stroke:none;" d="M635 108L635 109L642 108L635 108z"/>
<path style="fill:#87da68; stroke:none;" d="M766.667 107.333L767.333 107.667L766.667 107.333z"/>
<path style="fill:#99d57f; stroke:none;" d="M827.667 107.333L828.333 107.667L827.667 107.333z"/>
<path style="fill:#6fc250; stroke:none;" d="M833 109L833 110L838 110L837 107L833 109z"/>
<path style="fill:#8fd86d; stroke:none;" d="M902 107L902 108L907 108L902 107z"/>
<path style="fill:#b4eaac; stroke:none;" d="M955 107L955 108L960 109L960 108L955 107z"/>
<path style="fill:#92db72; stroke:none;" d="M973 107L973 108L976 108L973 107z"/>
<path style="fill:#a7e496; stroke:none;" d="M521 108L521 109L532 109L521 108z"/>
<path style="fill:#a6e393; stroke:none;" d="M538 108L538 109L559 109L538 108z"/>
<path style="fill:#a1e68d; stroke:none;" d="M606.667 108.333L607.333 108.667L606.667 108.333z"/>
<path style="fill:#9de383; stroke:none;" d="M616 108L616 109L619 109L616 108z"/>
<path style="fill:#a2e391; stroke:none;" d="M661 108L661 109L669 109L661 108z"/>
<path style="fill:#a2e393; stroke:none;" d="M675 108L675 109L682 109L675 108z"/>
<path style="fill:#a7e38b; stroke:none;" d="M692 108L692 112L693 112L693 109L702 109L692 108z"/>
<path style="fill:#a6e096; stroke:none;" d="M708 108L708 109L716 109L708 108z"/>
<path style="fill:#8ed376; stroke:none;" d="M752 108L752 109L756 109L752 108z"/>
<path style="fill:#8fcf78; stroke:none;" d="M763 108L763 109L766 109L763 108z"/>
<path style="fill:#97e188; stroke:none;" d="M823 108L823 109L826 109L823 108z"/>
<path style="fill:#84d473; stroke:none;" d="M842 108L842 109L848 109L842 108z"/>
<path style="fill:#81cc6d; stroke:none;" d="M879 108L881 111L879 108z"/>
<path style="fill:#aae892; stroke:none;" d="M907 108L907 109L910 109L907 108z"/>
<path style="fill:#9fdc8e; stroke:none;" d="M970 108L970 109L973 109L970 108z"/>
<path style="fill:#b4f098; stroke:none;" d="M608 109L608 110L615 110L608 109z"/>
<path style="fill:#95e779; stroke:none;" d="M744 109L744 129L745 129L744 109z"/>
<path style="fill:#b0f79b; stroke:none;" d="M755 109L755 110L763 110L755 109z"/>
<path style="fill:#b1f39c; stroke:none;" d="M816 109L816 110L823 110L816 109z"/>
<path style="fill:#92da77; stroke:none;" d="M910.667 109.333L911.333 109.667L910.667 109.333z"/>
<path style="fill:#b6f1a1; stroke:none;" d="M960 109L960 110L970 110L960 109z"/>
<path style="fill:#53ba2b; stroke:none;" d="M600 110C604.483 118.74 616.641 115.257 624 112L624 111C614.097 113.291 609.49 114.404 600 110z"/>
<path style="fill:#d3ffba; stroke:none;" d="M886 110L886 111L902 111L886 110z"/>
<path style="fill:#72c455; stroke:none;" d="M885 111L885 112L904 112L885 111z"/>
<path style="fill:#4fbc2b; stroke:none;" d="M952 111L952 114L972 115L972 114L952 111z"/>
<path style="fill:#deffc9; stroke:none;" d="M521 112L521 113L559 113C548.964 108.789 531.911 112 521 112z"/>
<path style="fill:#e2ffd0; stroke:none;" d="M662 112L662 113L682 113L662 112z"/>
<path style="fill:#dcffcd; stroke:none;" d="M693 112L693 113L715 113L693 112z"/>
<path style="fill:#5dad3e; stroke:none;" d="M842 113L842 114L850 113L842 113z"/>
<path style="fill:#b3f7a4; stroke:none;" d="M877 115L880 112L877 115z"/>
<path style="fill:#3ec812; stroke:none;" d="M884.228 113.028C880.021 115.6 880.021 123.4 884.228 125.972C889.259 129.048 902.057 127.566 906.772 124.431C910.614 121.876 911.104 115.546 906.852 113.028C902.845 110.655 888.212 110.592 884.228 113.028z"/>
<path style="fill:#5db53d; stroke:none;" d="M521 113L521 114L559 114C548.964 109.789 531.911 113 521 113z"/>
<path style="fill:#5caf3d; stroke:none;" d="M663 113L663 114L680 114L663 113z"/>
<path style="fill:#9bdb8d; stroke:none;" d="M915 114L915 122L916 122L915 114z"/>
<path style="fill:#7ad755; stroke:none;" d="M875 118L875 123L876 123L875 118z"/>
<path style="fill:#d1ffbe; stroke:none;" d="M880 118L880 122L881 122L880 118z"/>
<path style="fill:#8adc6e; stroke:none;" d="M914 122L913 126L914 126L914 122z"/>
<path style="fill:#808080; stroke:none;" d="M144 123L144 124L192 124C179.586 118.791 157.526 123 144 123z"/>
<path style="fill:#7b7b7b; stroke:none;" d="M232 124L232 125L242 125L232 124z"/>
<path style="fill:#7d7d7d; stroke:none;" d="M376 124L376 125L384 125L376 124z"/>
<path style="fill:#8edf78; stroke:none;" d="M876.333 124.667L876.667 125.333L876.333 124.667z"/>
<path style="fill:#b7f3ab; stroke:none;" d="M905 126L908 124L905 126z"/>
<path style="fill:#b4e99b; stroke:none;" d="M902 126L902 127L905 127L902 126z"/>
<path style="fill:#7fd067; stroke:none;" d="M888 127L888 128L897 128L888 127z"/>
<path style="fill:#6dbf50; stroke:none;" d="M745 128L745 129L757 129L745 128z"/>
<path style="fill:#97e673; stroke:none;" d="M887 132L887 133L898 133L887 132z"/>
<path style="fill:#a6ea95; stroke:none;" d="M733 133L733 134L758 134L733 133z"/>
</svg>
