<?xml version="1.0" standalone="no"?>
<!DOCTYPE svg PUBLIC "-//W3C//DTD SVG 20010904//EN"
 "http://www.w3.org/TR/2001/REC-SVG-20010904/DTD/svg10.dtd">
<svg version="1.0" xmlns="http://www.w3.org/2000/svg"
 width="1024.000000pt" height="182.000000pt" viewBox="0 0 1024.000000 182.000000"
 preserveAspectRatio="xMidYMid meet">
<metadata>
Created by potrace 1.16, written by Peter Selinger 2001-2019
</metadata>
<g transform="translate(0.000000,182.000000) scale(0.100000,-0.100000)"
fill="#000000" stroke="none">
<path d="M0 910 l0 -910 2350 0 2350 0 0 910 0 910 -2350 0 -2350 0 0 -910z
m1831 458 c1 -13 2 -39 3 -58 1 -19 3 -164 4 -322 l2 -287 113 -3 c108 -3 112
-4 115 -25 l3 -23 -276 0 -276 0 3 23 c3 21 7 22 131 25 l127 3 0 314 c0 172
-3 316 -7 318 -5 2 -59 -1 -122 -6 -93 -8 -115 -7 -122 4 -5 8 -4 18 2 24 10
10 166 31 252 34 42 1 47 -1 48 -21z m-691 -12 c72 -39 98 -94 87 -179 -4 -32
-15 -51 -44 -78 l-38 -35 50 -25 c66 -32 96 -84 96 -168 1 -100 -39 -156 -141
-198 -38 -15 -74 -18 -235 -18 -183 0 -190 1 -190 20 0 18 8 20 63 23 l62 3 0
314 0 315 -49 0 c-63 0 -81 7 -81 32 0 19 7 19 193 16 166 -3 197 -6 227 -22z
m2547 -172 c8 -20 -21 -44 -53 -44 -12 0 -47 -11 -78 -25 l-57 -25 16 -29 c8
-17 15 -55 15 -87 0 -50 -3 -59 -33 -89 -37 -37 -89 -55 -160 -55 -82 0 -142
-35 -131 -77 8 -29 18 -32 144 -38 133 -7 178 -21 208 -65 69 -102 -21 -206
-188 -217 -114 -8 -163 2 -205 41 -29 28 -35 40 -35 75 0 46 17 86 49 115 l20
19 -23 18 c-50 40 -39 99 26 139 l30 18 -30 16 c-50 26 -72 62 -72 119 0 104
71 162 200 162 60 0 83 -5 114 -23 l38 -23 71 46 c74 47 123 58 134 29z
m-1006 -51 c94 -42 142 -123 142 -238 1 -89 -29 -156 -91 -202 -56 -42 -111
-56 -197 -51 -139 9 -225 88 -241 221 -16 138 60 255 190 288 49 13 148 3 197
-18z"/>
<path d="M910 1200 l0 -130 63 0 c85 0 135 16 174 55 28 28 33 40 33 78 0 87
-62 127 -199 127 l-71 0 0 -130z"/>
<path d="M910 860 l0 -163 94 5 c161 9 228 59 230 174 0 39 -5 61 -20 81 -34
46 -69 57 -191 61 l-113 4 0 -162z"/>
<path d="M3263 1099 c-46 -13 -73 -53 -73 -106 0 -84 38 -113 149 -113 60 0
74 3 100 26 38 32 48 78 27 128 -26 61 -116 90 -203 65z"/>
<path d="M3211 639 c-31 -50 -28 -112 5 -138 22 -17 41 -21 107 -21 44 0 97 5
119 12 75 22 100 91 54 145 -24 27 -27 28 -145 32 l-120 3 -20 -33z"/>
<path d="M2486 1095 c-53 -19 -104 -71 -117 -119 -19 -70 -7 -159 27 -208 39
-56 83 -78 159 -78 89 0 142 30 178 99 92 183 -60 373 -247 306z"/>
</g>
</svg>
